<svg xmlns="http://www.w3.org/2000/svg" viewBox="0 0 787.67 286.86"><defs><style>.cls-1{fill:#e2dfde;}</style></defs><g id="Capa_2" data-name="Capa 2"><g id="Capa_1-2" data-name="Capa 1"><path class="cls-1" d="M304.56,284.92a11.22,11.22,0,0,1-6.8,1.94,9.5,9.5,0,0,1-6.68-2.33,9.33,9.33,0,0,1-2.91-6.24l4.46,0q.92,3.78,5.3,3.79a5.63,5.63,0,0,0,2.95-.68,2.36,2.36,0,0,0,1.13-2.08,2.61,2.61,0,0,0-.35-1.29,4.41,4.41,0,0,0-.78-1,7.08,7.08,0,0,0-1.38-.88c-.64-.32-1.14-.56-1.52-.71l-1.78-.71c-.88-.34-1.59-.63-2.11-.86a17.77,17.77,0,0,1-1.86-1,7.25,7.25,0,0,1-1.69-1.32,6.37,6.37,0,0,1-1-1.66,5.5,5.5,0,0,1-.44-2.2,6.06,6.06,0,0,1,2.59-5.08,10.21,10.21,0,0,1,6.35-1.95q8,0,9.46,8.29h-4.77a4.59,4.59,0,0,0-1.32-2.82,4.34,4.34,0,0,0-3.24-1.18,5,5,0,0,0-2.7.69,2.1,2.1,0,0,0-1.1,1.85,2,2,0,0,0,.34,1.12,3.53,3.53,0,0,0,1.13,1,11.42,11.42,0,0,0,1.43.76l1.89.78,1.91.78c.42.18,1,.47,1.78.85a8.36,8.36,0,0,1,1.77,1.13,17.74,17.74,0,0,1,1.32,1.37,4.84,4.84,0,0,1,1,1.8,7.31,7.31,0,0,1,.31,2.2A6.53,6.53,0,0,1,304.56,284.92Z"/><path class="cls-1" d="M345.53,265.47h-7.22v21h-5.07v-21H326V261h19.53Z"/><path class="cls-1" d="M382.84,284.37a12.26,12.26,0,0,1-14.81,0,7.58,7.58,0,0,1-3-6.08V261h5.13v16.36a4.68,4.68,0,0,0,1.55,3.53,5.56,5.56,0,0,0,7.51,0,4.68,4.68,0,0,0,1.55-3.53V261h5.13v17.27A7.58,7.58,0,0,1,382.84,284.37Z"/><path class="cls-1" d="M407.16,261H416a12.85,12.85,0,0,1,9.13,3.38q3.63,3.36,3.62,9.37t-3.6,9.41a12.91,12.91,0,0,1-9.15,3.34h-8.83Zm8.8,21a7.73,7.73,0,0,0,5.58-2c1.4-1.35,2.11-3.43,2.11-6.25s-.7-5-2.09-6.3a7.79,7.79,0,0,0-5.6-2h-3.7V282Z"/><path class="cls-1" d="M449.11,261h5.13v25.5h-5.13Z"/><path class="cls-1" d="M487.05,286.86a11.64,11.64,0,0,1-8.95-3.77,14.19,14.19,0,0,1,0-18.63,12.47,12.47,0,0,1,17.89,0,14.06,14.06,0,0,1,0,18.59A11.66,11.66,0,0,1,487.05,286.86Zm-5.5-7.26a7,7,0,0,0,5.5,2.29,6.9,6.9,0,0,0,5.48-2.29,9.5,9.5,0,0,0,0-11.69,6.87,6.87,0,0,0-5.48-2.3,7,7,0,0,0-5.52,2.3,8.58,8.58,0,0,0-2,5.86A8.47,8.47,0,0,0,481.55,279.6Z"/><path class="cls-1" d="M172.13,68.85V223.77H137.71V99.84H103.28V223.77H68.85V99.84H34.43V223.77H0V68.85Z"/><path class="cls-1" d="M223.71,153.2a43,43,0,0,0,78.65,16.4l29.22,18.2a77.45,77.45,0,1,1,12.06-41.49v6.89Zm3-24.1h78.88a43,43,0,0,0-78.88,0Z"/><path class="cls-1" d="M507.35,146.31a77.46,77.46,0,1,1-77.46-77.46A77.46,77.46,0,0,1,507.35,146.31Zm-34.42,0a43,43,0,1,0-43,43A43,43,0,0,0,472.93,146.31Z"/><path class="cls-1" d="M523.94,223.77V0h34.43V223.77Z"/><path class="cls-1" d="M581.76,223.77V0h34.42V223.77Z"/><path class="cls-1" d="M787.67,146.31a77.46,77.46,0,1,1-77.46-77.46A77.46,77.46,0,0,1,787.67,146.31Zm-34.42,0a43,43,0,1,0-43,43A43,43,0,0,0,753.25,146.31Z"/></g></g></svg>